<svg xmlns="http://www.w3.org/2000/svg" width="108.439" height="103.999" viewBox="0 0 108.439 103.999">
  <g id="Layer_1" transform="translate(-35 -38.2)">
    <path id="Path_1963" data-name="Path 1963" d="M222.589,299.065c-8.508,2.445-22.467,18.116-30.975,20.561s-19.974-1.32-19.974-1.32,12.077-1.174,18.7-3.056,7.872-4.694,6.992-7.774c-2.127-7.457-15.133-4.987-21.807-4.107-7.285-1.687-11.344-3.52-22.027-1.418a9.892,9.892,0,0,1,.2,1.907l.1,32.613c10.953,1.638,29.631,3.814,38.407,1.3,12.786-3.667,41.952-30.486,40.73-34.74S226.843,297.843,222.589,299.065Z" transform="translate(-89.529 -196.714)" fill="#fff"/>
    <circle id="Ellipse_154" data-name="Ellipse 154" cx="30.193" cy="30.193" r="30.193" transform="translate(37.909 38.2)" fill="#39beec"/>
    <circle id="Ellipse_155" data-name="Ellipse 155" cx="30.193" cy="30.193" r="30.193" transform="translate(78.053 38.2)" fill="#1b60a3"/>
    <rect id="Rectangle_742" data-name="Rectangle 742" width="25.426" height="38.383" transform="translate(35 103.182)" fill="#fff"/>
  </g>
</svg>
